<svg class="search-jumper-logoBtnSvg" viewBox="0 0 1024 1024" version="1.1" xmlns="http://www.w3.org/2000/svg">
<title>Search Jumper</title>
<path d="m0.73602,510.46361l0,0c0,-281.94139 228.33479,-510.50004 510.00009,-510.50004l0,0c135.26037,0 264.98086,53.78467 360.62446,149.522c95.64356,95.73733 149.37549,225.58503 149.37549,360.97804l0,0c0,281.94133 -228.33476,510.49997 -509.99995,510.49997l0,0c-281.66529,0 -510.00009,-228.55868 -510.00009,-510.49997zm510.00009,-510.50004l0,1021.00001m-510.00009,-510.49997l1020.00003,0" fill="#fefefe"></path>
<path d="m286.08,346.624m-48.64,0a48.64,48.64 0 1 0 97.28,0a48.64,48.64 0 1 0 -97.28,0z" fill="#333333"></path>
<path d="m748.544,346.624m-48.64,0a48.64,48.64 0 1 0 97.28,0a48.64,48.64 0 1 0 -97.28,0z" fill="#333333"></path>
<path d="m423.296,759.296c-64,0 -115.712,-52.224 -115.712,-115.712c0,-26.624 9.216,-52.224 25.6,-72.704c9.216,-11.776 26.112,-13.312 37.888,-4.096c11.776,9.216 13.312,26.112 4.096,37.888c-9.216,11.264 -13.824,24.576 -13.824,38.912c0,34.304 27.648,61.952 61.952,61.952c34.304,0 61.952,-27.648 61.952,-61.952c0,-4.096 -0.512,-8.192 -1.024,-11.776c-2.56,-14.848 6.656,-28.672 21.504,-31.744c14.848,-2.56 28.672,6.656 31.744,21.504c1.536,7.168 2.048,14.336 2.048,22.016c-0.512,63.488 -52.224,115.712 -116.224,115.712z" fill="#333333"></path>
<path d="m602.08,760.296c-64,0 -115.712,-52.224 -115.712,-115.712c0,-14.848 12.288,-27.136 27.136,-27.136s27.136,12.288 27.136,27.136c0,34.304 27.648,61.952 61.952,61.952c34.304,0 61.952,-27.648 61.952,-61.952c0,-15.36 -5.632,-30.208 -15.872,-41.472c-9.728,-11.264 -9.216,-28.16 2.048,-37.888c11.264,-9.728 28.16,-9.216 37.888,2.048c19.456,21.504 29.696,48.64 29.696,77.824c0,62.976 -52.224,115.2 -116.224,115.2z" fill="#333333"></path>
<ellipse ry="58" rx="125" cy="506.28408" cx="201.18283" fill="#ffaaff"></ellipse>
<ellipse ry="58" rx="125" cy="506.28408" cx="823.18283" fill="#ffaaff"></ellipse>
</svg>